<svg xmlns="http://www.w3.org/2000/svg" viewBox="0 0 266.55 181.35">
  <defs>
    <style>
      .cls-1, .cls-4 {
        fill: #3fa7d6;
      }

      .cls-2, .cls-3 {
        fill: #fac05e;
      }

      .cls-3 {
        font-size: 40px;
        font-family: ZonaPro-Bold, Zona Pro;
        font-weight: 700;
      }

      .cls-4 {
        font-family: ZonaPro-Regular, Zona Pro;
        font-weight: 400;
        opacity: 0.98;
      }
    </style>
  </defs>
  <g id="Layer_2" data-name="Layer 2">
    <g id="Layer_1-2" data-name="Layer 1">
      <g>
        <g>
          <g>
            <path class="cls-1" d="M125.33,74.85c1.28.9,6.29,7.1,7.66,7.8s5.86,2.32,7.9.61,3.86-7.71,3.9-9.15-2.53-6.09-3.44-6.92C140,66,130.87,68,127.66,66.46s-5.13-2.42-7.3-1.28l-.29.16c-2.3,1.38-9.32,0-10.76,1.48-1.18,1.22-8.83,11.87-13.49,18.12A44.88,44.88,0,0,0,133.27,105a39.68,39.68,0,0,0,10.92-1.33c.06-.49.09-.86.1-1.09.11-2.49-5.73-6.23-6.31-8.84s-2.53-3.42-6-4.75-4.23-4.7-8.66-8.5S124.06,73.94,125.33,74.85Z"/>
            <path class="cls-1" d="M133.27,15a45,45,0,0,0-45,45c0,.43,0,.86,0,1.29l10.88-5c1.4-.81,8.58-5.18,9-9.14.51-4.38-.3-5.3.82-12.43s4-6.89,4.43-5.41-1.68,10.09-.31,13,3-3.21,3.93-5.87c.45-1.22,1.8-3.95,3.28-6.77,1.72-3.29,3.61-6.72,4.46-8.06,1.59-2.5,5.51-1.06,3.73,3.06s-4.08,8.56-5.05,11.21-.3,3.37,1.94,1,8.87-8.47,11.37-11,3.51-4.49,4.48-4.69,3.06,1,.51,5.2-8.31,10.2-9.28,11.67-1.58,2.3,1.07,1.68,5.15-1.42,6.68.15,6.73,8.46,7.5,9.54,1.78,2.7-.21,2.79a7.42,7.42,0,0,1-5.66-2.95c-1.37-1.73-3.61-4.43-4.84-4.53s-6.37,1.22-7.39,2.24-4.13,6.47-4,9.12,4.41,4.82,5.86,5.33,8.94.14,11.11.17S146,64,147.36,66.29s1.55,1.35,2-.37.83-10,2.12-14.76,3.61-4,4.13-3.19-.23,2.94-.33,6.47,0,12.51-.17,15.79.77,3.27,2,.74,2.92-7.23,4.69-11.36,5.51-2.26,4.78.6A149.61,149.61,0,0,1,161.1,76c-1.26,2.52-4.59,7.84-1.57,6.88s7.82-8.43,9.21-9.11,3.53,1.22-.88,6.94-5.65,5.75-8.5,9.13c-1.38,1.65-1.5,4.84-1.26,7.66A45,45,0,0,0,133.27,15Z"/>
          </g>
          <g>
            <path class="cls-2" d="M73.31,60h0l10.12,3.8v0l.07,0c-.1-1.25-.15-2.52-.15-3.8s0-2.55.15-3.8l-.07,0v0Z"/>
            <path class="cls-2" d="M95.24,27.26a51.62,51.62,0,0,1,5.24-5.32l-9.63-4.37Z"/>
            <path class="cls-2" d="M85.7,44.39a48.64,48.64,0,0,1,2.85-7L77.85,37Z"/>
            <path class="cls-2" d="M188.7,37,178,37.39a48.69,48.69,0,0,1,2.86,7Z"/>
            <path class="cls-2" d="M171.31,27.26l4.39-9.69-9.63,4.37A51.62,51.62,0,0,1,171.31,27.26Z"/>
            <path class="cls-2" d="M155.89,15l.35-10.47-7.14,7.61A49.67,49.67,0,0,1,155.89,15Z"/>
            <path class="cls-2" d="M117.44,12.18l-7.13-7.61L110.66,15A50.08,50.08,0,0,1,117.44,12.18Z"/>
            <path class="cls-2" d="M129.61,9.74c1.21-.09,2.43-.14,3.66-.14s2.46.05,3.67.14L133.27,0Z"/>
            <path class="cls-2" d="M193.24,60h0l-10.11-3.8v0l-.07,0c.1,1.25.14,2.52.14,3.8s0,2.55-.14,3.8l.07,0v0Z"/>
            <path class="cls-2" d="M166.07,98.06l9.63,4.36-4.39-9.68A51.62,51.62,0,0,1,166.07,98.06Z"/>
            <path class="cls-2" d="M178,82.61,188.7,83l-7.85-7.35A49.64,49.64,0,0,1,178,82.61Z"/>
            <path class="cls-2" d="M77.85,83l10.7-.35a49.59,49.59,0,0,1-2.85-7Z"/>
            <path class="cls-2" d="M95.24,92.74l-4.39,9.68,9.63-4.36A51.62,51.62,0,0,1,95.24,92.74Z"/>
            <path class="cls-2" d="M110.31,115.43l7.13-7.61a50.08,50.08,0,0,1-6.78-2.86Z"/>
            <path class="cls-2" d="M149.11,107.82l7.13,7.61L155.89,105A50.08,50.08,0,0,1,149.11,107.82Z"/>
            <path class="cls-2" d="M129.61,110.26l3.66,9.74,3.67-9.74c-1.22.09-2.43.14-3.67.14S130.82,110.35,129.61,110.26Z"/>
          </g>
        </g>
        <text class="cls-3" transform="translate(0 168.8)">SD<tspan class="cls-4" x="55.12" y="0" xml:space="preserve"> ACADEMY</tspan></text>
      </g>
    </g>
  </g>
</svg>
