<svg xmlns="http://www.w3.org/2000/svg" width="276.868" height="200" viewBox="0 0 276.868 200">
    <path data-name="Tracé 204" d="M530.468 694.886H254.4a.391.391 0 1 1 0-.781h276.068a.391.391 0 1 1 0 .781z" transform="translate(-254 -496.383)" style="fill:#ccc"/>
    <path data-name="Tracé 205" d="M625.269 521.7H466.742a2.538 2.538 0 1 0 0 5.076h4.49V587.5a2.538 2.538 0 0 0 5.076 0l.039-60.717h138.965V587.5a2.538 2.538 0 0 0 5.076 0v-59.383l.738-1.338h4.142a2.538 2.538 0 1 0 0-5.076z" transform="translate(-375.458 -391.297)" style="fill:#ccc"/>
    <path data-name="Tracé 206" d="M615.357 472.884h-48.02a3.511 3.511 0 0 1-3.507-3.507v-26.438a3.511 3.511 0 0 1 3.507-3.507h48.02a3.511 3.511 0 0 1 3.507 3.507v26.438a3.511 3.511 0 0 1-3.507 3.507z" transform="translate(-439.104 -343.183)" style="fill:#3f3d56"/>
    <path data-name="Tracé 207" d="M619.57 446.345h-48.019a.81.81 0 0 0-.808.808v26.438a.81.81 0 0 0 .808.808h48.019a.81.81 0 0 0 .808-.808v-26.438a.81.81 0 0 0-.808-.808z" transform="translate(-443.328 -347.409)" style="fill:#fff"/>
    <path data-name="Tracé 208" d="M629.628 493.72s-5.749-1.325-8.91 1.1 4.024 7.948 4.024 7.948z" transform="translate(-473.381 -375.868)" style="fill:#2f2e41"/>
    <circle data-name="Ellipse 29" cx="5.422" cy="5.422" r="5.422" transform="translate(147.039 104.188)" style="fill:#a0616a"/>
    <path data-name="Tracé 209" d="M619.549 451.521a3.865 3.865 0 0 1 3.563-1.9 7.573 7.573 0 0 1 2.154.6l3.545 1.383a2.873 2.873 0 0 1 2.135 4.368l-1.326 4.136a12.591 12.591 0 0 0-.752-2.732 4.231 4.231 0 0 0-1.837-2.094 5.989 5.989 0 0 0-3.04-.413 6.075 6.075 0 0 0-4.1 1.289 4.254 4.254 0 0 0-1.079 2.108 12.691 12.691 0 0 0-.226 2.386 19.781 19.781 0 0 1-1.511-3.239 8.015 8.015 0 0 1-.561-2.622 3.687 3.687 0 0 1 .845-2.494 2.419 2.419 0 0 1 2.433-.766z" transform="translate(-471.271 -349.627)" style="fill:#2f2e41"/>
    <path data-name="Tracé 210" d="M628.716 497.91a.965.965 0 0 0-.808-.7.332.332 0 0 0-.039-.023l-8.095-4.536a1.029 1.029 0 0 0-1.378.355l-2.214 3.584-3.335-3.335-.053-.053a1.03 1.03 0 0 0-1.318-.115l-6.653 4.659h-.035a1.418 1.418 0 0 0-1.183 1.324l-.172 3.471H630z" transform="translate(-463.258 -375.355)" style="fill:#3fa7d6"/>
    <path data-name="Tracé 211" d="M616.035 515.972h-5.126a.54.54 0 0 0-.54-.54h-1.619a.54.54 0 0 0-.54.54h-1.619a.54.54 0 0 0-.54-.539h-1.618a.54.54 0 0 0-.54.54h-1.619a.539.539 0 0 0-.539-.54h-1.619a.54.54 0 0 0-.54.54h-1.616a.54.54 0 0 0-.54-.54h-1.62a.54.54 0 0 0-.54.54h-1.619a.54.54 0 0 0-.54-.54h-1.619a.54.54 0 0 0-.54.54h-1.619a.54.54 0 0 0-.54-.54h-1.619a.54.54 0 0 0-.54.54h-1.619a.54.54 0 0 0-.54-.54h-1.619a.54.54 0 0 0-.54.54h-1.619a.54.54 0 0 0-.54-.54h-1.619a.54.54 0 0 0-.539.54h-1.619a.54.54 0 0 0-.54-.54h-1.61a.54.54 0 0 0-.54.54h-1.619a.54.54 0 0 0-.54-.54H569.9a.54.54 0 0 0-.54.54h-1.619a.54.54 0 0 0-.54-.54h-1.619a.54.54 0 0 0-.539.54h-5.126a1.619 1.619 0 0 0 0 3.237h56.113a1.619 1.619 0 1 0 0-3.237z" transform="translate(-435.726 -389.193)" style="fill:#3f3d56"/>
    <path data-name="Tracé 212" d="M490.357 492.735v10.748h-26.926a5.377 5.377 0 1 1 0-10.748z" transform="translate(-376.031 -375.47)" style="fill:#f2f2f2"/>
    <path data-name="Tracé 213" d="M490.116 503.018a.414.414 0 0 1-.413.413h-27.655a5.663 5.663 0 1 1 0-11.326H489.7a.413.413 0 0 1 0 .827h-27.652a4.836 4.836 0 1 0 0 9.673H489.7a.414.414 0 0 1 .416.413z" transform="translate(-375.132 -375.085)" style="fill:#3fa7d6"/>
    <path data-name="Tracé 214" d="M495.778 498.834h-28.936a.083.083 0 0 1 0-.165h28.936a.083.083 0 0 1 0 .165z" transform="translate(-381.387 -379.194)" style="fill:#ccc"/>
    <path data-name="Tracé 215" d="M495.778 503.916h-28.936a.083.083 0 0 1 0-.165h28.936a.083.083 0 0 1 0 .165z" transform="translate(-381.387 -382.242)" style="fill:#ccc"/>
    <path data-name="Tracé 216" d="M495.778 509h-28.936a.083.083 0 0 1 0-.165h28.936a.083.083 0 0 1 0 .165z" transform="translate(-381.387 -385.291)" style="fill:#ccc"/>
    <path data-name="Tracé 217" d="M495.778 514.079h-28.936a.083.083 0 0 1 0-.165h28.936a.083.083 0 0 1 0 .165z" transform="translate(-381.387 -388.339)" style="fill:#ccc"/>
    <path data-name="Tracé 218" d="M477.357 463.735v10.748h-26.926a5.377 5.377 0 1 1 0-10.748z" transform="translate(-368.249 -358.089)" style="fill:#f2f2f2"/>
    <path data-name="Tracé 219" d="M477.116 474.018a.414.414 0 0 1-.413.413h-27.655a5.663 5.663 0 0 1 0-11.326H476.7a.413.413 0 0 1 0 .827h-27.652a4.836 4.836 0 1 0 0 9.673H476.7a.414.414 0 0 1 .416.413z" transform="translate(-367.352 -357.705)" style="fill:#3f3d56"/>
    <path data-name="Tracé 220" d="M482.778 469.834h-28.936a.083.083 0 0 1 0-.165h28.936a.083.083 0 0 1 0 .165z" transform="translate(-373.603 -361.797)" style="fill:#ccc"/>
    <path data-name="Tracé 221" d="M482.778 474.916h-28.936a.083.083 0 0 1 0-.165h28.936a.083.083 0 0 1 0 .165z" transform="translate(-373.603 -364.846)" style="fill:#ccc"/>
    <path data-name="Tracé 222" d="M482.778 480h-28.936a.083.083 0 0 1 0-.165h28.936a.083.083 0 0 1 0 .165z" transform="translate(-373.603 -367.894)" style="fill:#ccc"/>
    <path data-name="Tracé 223" d="M482.778 485.079h-28.936a.083.083 0 0 1 0-.165h28.936a.083.083 0 0 1 0 .165z" transform="translate(-373.603 -370.942)" style="fill:#ccc"/>
    <path data-name="Tracé 224" d="M547.958 601.038v-9.371a1.562 1.562 0 0 0-1.558-1.567h-35.535a1.562 1.562 0 0 0-1.562 1.562v9.371z" transform="translate(-406.746 -433.826)" style="fill:#ccc"/>
    <path data-name="Rectangle 50" transform="translate(102.557 171.561)" style="fill:#ccc" d="M0 0h38.656v12.104H0z"/>
    <path data-name="Tracé 225" d="M509.3 667.1v9.371a1.562 1.562 0 0 0 1.562 1.562H546.4a1.562 1.562 0 0 0 1.562-1.562V667.1z" transform="translate(-406.746 -479.925)" style="fill:#ccc"/>
    <circle data-name="Ellipse 30" cx="1.171" cy="1.171" r="1.171" transform="translate(120.576 161.8)" style="fill:#fff"/>
    <circle data-name="Ellipse 31" cx="1.171" cy="1.171" r="1.171" transform="translate(120.576 177.418)" style="fill:#fff"/>
    <circle data-name="Ellipse 32" cx="1.171" cy="1.171" r="1.171" transform="translate(120.641 192.706)" style="fill:#fff"/>
    <path data-name="Tracé 226" d="M546.358 562.735v10.748h-26.927a5.377 5.377 0 1 1 0-10.748z" transform="translate(-409.552 -417.424)" style="fill:#f2f2f2"/>
    <path data-name="Tracé 227" d="M546.116 573.018a.413.413 0 0 1-.413.413h-27.655a5.663 5.663 0 1 1 0-11.326H545.7a.413.413 0 0 1 0 .827h-27.652a4.836 4.836 0 1 0 0 9.673H545.7a.413.413 0 0 1 .413.413z" transform="translate(-408.65 -417.037)" style="fill:#3f3d56"/>
    <path data-name="Tracé 228" d="M551.778 568.834h-28.936a.083.083 0 1 1 0-.165h28.936a.083.083 0 0 1 0 .165z" transform="translate(-414.916 -421.186)" style="fill:#ccc"/>
    <path data-name="Tracé 229" d="M551.778 573.916h-28.936a.083.083 0 1 1 0-.165h28.936a.083.083 0 0 1 0 .165z" transform="translate(-414.916 -424.235)" style="fill:#ccc"/>
    <path data-name="Tracé 230" d="M551.778 579h-28.936a.083.083 0 1 1 0-.165h28.936a.083.083 0 0 1 0 .165z" transform="translate(-414.916 -427.283)" style="fill:#ccc"/>
    <path data-name="Tracé 231" d="M551.778 584.079h-28.936a.083.083 0 1 1 0-.165h28.936a.083.083 0 0 1 0 .165z" transform="translate(-414.916 -430.332)" style="fill:#ccc"/>
    <path data-name="Tracé 232" d="M504.11 271.524V203a2.94 2.94 0 0 1 2.937-2.937h54.168a2.94 2.94 0 0 1 2.936 2.937v68.526a2.94 2.94 0 0 1-2.937 2.937h-54.167a2.94 2.94 0 0 1-2.937-2.937zm2.937-70.81a2.287 2.287 0 0 0-2.284 2.286v68.526a2.287 2.287 0 0 0 2.284 2.284h54.168a2.287 2.287 0 0 0 2.284-2.284V203a2.287 2.287 0 0 0-2.284-2.284z" transform="translate(-403.352 -200.062)" style="fill:#e6e6e6"/>
    <path data-name="Tracé 233" d="M588.776 256.4v-14.07a1.47 1.47 0 0 1 1.468-1.468h11.923a1.47 1.47 0 0 1 1.468 1.468v14.07a1.47 1.47 0 0 1-1.468 1.468h-11.923a1.47 1.47 0 0 1-1.468-1.469z" transform="translate(-454.645 -224.932)" style="fill:#3fa7d6"/>
    <path data-name="Tracé 234" d="M529.44 273.116v-14.07a1.47 1.47 0 0 1 1.468-1.468h11.924a1.47 1.47 0 0 1 1.468 1.468v14.07a1.47 1.47 0 0 1-1.468 1.468h-11.924a1.47 1.47 0 0 1-1.468-1.468z" transform="translate(-419.082 -235.12)" style="fill:#ccc"/>
    <path data-name="Tracé 235" d="M577.076 324.095v-14.07a1.47 1.47 0 0 1 1.468-1.468h11.923a1.47 1.47 0 0 1 1.468 1.468V324.1a1.47 1.47 0 0 1-1.468 1.468h-11.923a1.47 1.47 0 0 1-1.468-1.473z" transform="translate(-447.632 -265.048)" style="fill:#ff6584"/>
    <path data-name="Tracé 236" d="M734.517 513.1h-12.268a.758.758 0 0 0-.336.078l-3.1 1.55a.564.564 0 0 0 0 1.039l3.1 1.55a.757.757 0 0 0 .336.078h12.268a.644.644 0 0 0 .68-.6v-3.1a.644.644 0 0 0-.68-.595z" transform="translate(-532.343 -387.787)" style="fill:#3f3d56"/>
    <path data-name="Tracé 237" d="M756.427 513.7v3.1a.644.644 0 0 1-.679.6H753.3v-4.3h2.444a.644.644 0 0 1 .683.6z" transform="translate(-553.476 -387.787)" style="fill:#3fa7d6"/>
    <path data-name="Tracé 238" d="M755.277 453.156a4.3 4.3 0 0 1 5.814 2.7 4.128 4.128 0 0 1 .125.56l17.156 8.507 3.97-2.631 4.94 5.687-6.062 4.923a4.353 4.353 0 0 1-5.194.2l-17.406-12.037a4.106 4.106 0 0 1-.4.145 4.3 4.3 0 0 1-5.471-3.343 4.184 4.184 0 0 1-.063-.523 4.309 4.309 0 0 1 2.591-4.188z" transform="translate(-552.455 -351.388)" style="fill:#ffb8b8"/>
    <path data-name="Tracé 239" d="M788.363 587.853h-18.746c0 .539-19.32.976-19.32.976a5.02 5.02 0 0 0-.824.781 4.845 4.845 0 0 0-1.133 3.124v.781a4.883 4.883 0 0 0 4.881 4.881h35.141a4.885 4.885 0 0 0 4.881-4.881v-.781a4.887 4.887 0 0 0-4.88-4.881z" transform="translate(-548.65 -432.485)" style="fill:#3f3d56"/>
    <path data-name="Rectangle 51" transform="rotate(180 111.539 99.691)" style="fill:#3f3d56" d="M0 0h5.076v32.799H0z"/>
    <path data-name="Tracé 240" d="M761.617 690.254c0 .548 7.692.212 17.18.212s17.18.336 17.18-.212-7.692-4.9-17.18-4.9-17.18 4.352-17.18 4.9z" transform="translate(-556.743 -491.05)" style="fill:#3f3d56"/>
    <path data-name="Tracé 241" d="M508.325 468.611h-4.787l-2.277-12.411h7.065z" transform="translate(-300.577 -273.251)" style="fill:#ffb8b8"/>
    <path data-name="Tracé 242" d="M752.385 690.254h-15.436v-.2a6.008 6.008 0 0 1 6.008-6.008h9.428z" transform="translate(-543.44 -490.254)" style="fill:#2f2e41"/>
    <path data-name="Tracé 243" d="m739.073 599.395-9.543-21.4a7.843 7.843 0 0 1 3.443-10.068l20.7-11.1 9.446-.8 8.713-.792.063.106a8.819 8.819 0 0 1 .687 6.92c-.961 2.691-3.459 4.793-7.426 6.248-9.26 3.4-19.956 6.3-24.125 7.387a1.347 1.347 0 0 0-.863.687 1.366 1.366 0 0 0-.077 1.093l8.866 19.919a1.757 1.757 0 0 1-1.487 2.354l-6.625.482q-.084.008-.168.008a1.756 1.756 0 0 1-1.604-1.044z" transform="translate(-537.975 -411.734)" style="fill:#2f2e41"/>
    <path data-name="Tracé 244" d="M514.325 468.611h-4.787l-2.277-12.411h7.065z" transform="translate(-304.175 -273.251)" style="fill:#ffb8b8"/>
    <path data-name="Tracé 245" d="M758.385 690.254h-15.436v-.2a6.008 6.008 0 0 1 6.008-6.008h9.427z" transform="translate(-547.036 -490.254)" style="fill:#2f2e41"/>
    <path data-name="Tracé 246" d="m746.073 602.395-9.543-21.4a7.843 7.843 0 0 1 3.443-10.068l20.7-11.1 9.446-.8 8.713-.792.063.106a8.819 8.819 0 0 1 .687 6.92c-.961 2.691-3.459 4.793-7.426 6.248-9.26 3.4-19.956 6.3-24.125 7.387a1.348 1.348 0 0 0-.863.687 1.366 1.366 0 0 0-.077 1.093l8.866 19.919a1.757 1.757 0 0 1-1.487 2.354l-6.625.482q-.084.008-.168.008a1.756 1.756 0 0 1-1.604-1.044z" transform="translate(-541.043 -413.562)" style="fill:#2f2e41"/>
    <path data-name="Tracé 247" d="M735.019 461.572a65.4 65.4 0 0 1-9.4-17.544 1.68 1.68 0 0 1 .793-2.022l13.723-7.353a1.658 1.658 0 0 1 1.455-.059 1.687 1.687 0 0 1 .961 1.126 39.955 39.955 0 0 0 8.764 16.357 1.686 1.686 0 0 1 .405 1.424 1.658 1.658 0 0 1-.855 1.178l-13.723 7.353a1.68 1.68 0 0 1-2.123-.46z" transform="translate(-536.382 -340.299)" style="fill:#ccc"/>
    <path data-name="Tracé 248" d="M737.783 462.7a.507.507 0 0 0 .633.131l13.723-7.353a.486.486 0 0 0 .255-.35.515.515 0 0 0-.127-.44 41.132 41.132 0 0 1-9.022-16.839.515.515 0 0 0-.3-.349.487.487 0 0 0-.433.018l-13.723 7.353a.507.507 0 0 0-.242.6 64.234 64.234 0 0 0 9.232 17.23z" transform="translate(-538.226 -342.13)" style="fill:#fff"/>
    <path data-name="Tracé 249" d="m845.316 484.767-10.747 4.084-2.624-7.289a4.361 4.361 0 0 1 1.953-5.271 4.361 4.361 0 0 1 5.569 1.087z" transform="translate(-599.453 -365.24)" style="fill:#3fa7d6"/>
    <path data-name="Tracé 250" d="M794.365 513.36a1.952 1.952 0 0 1-.813-1.386c-1.377-12.85-.418-22.906 2.931-30.743a9.758 9.758 0 0 1 6.469-5.537l8.688-.439.045.022a10.154 10.154 0 0 1 5.552 10.772c-2.794 7.365-5.134 15.034-3.35 21.22a2 2 0 0 1-.189 1.555 1.907 1.907 0 0 1-1.217.9l-16.547 3.936a1.938 1.938 0 0 1-1.568-.3z" transform="translate(-575.838 -364.5)" style="fill:#3fa7d6"/>
    <circle data-name="Ellipse 33" cx="9.59" cy="9.59" r="9.59" transform="translate(223.311 87.355)" style="fill:#ffb8b8"/>
    <path data-name="Tracé 251" d="m750.72 457.683-7.474 3.3a1.173 1.173 0 0 1-1.545-.6l-.185-.419a1.173 1.173 0 0 1 .6-1.545l7.474-3.3a1.173 1.173 0 0 1 1.545.6l.185.419a1.173 1.173 0 0 1-.6 1.545z" transform="translate(-546.221 -352.934)" style="fill:#ccc"/>
    <path data-name="Tracé 252" d="m757.72 470.683-7.474 3.3a1.173 1.173 0 0 1-1.545-.6l-.185-.419a1.173 1.173 0 0 1 .6-1.545l7.474-3.3a1.173 1.173 0 0 1 1.545.6l.185.419a1.173 1.173 0 0 1-.6 1.545z" transform="translate(-550.418 -360.728)" style="fill:#ccc"/>
    <path data-name="Tracé 253" d="M752.122 492.048 735.459 478.9a4.109 4.109 0 0 1-.4.119 4.306 4.306 0 0 1-3.443-.66 4.261 4.261 0 0 1-1.806-3.02 4.3 4.3 0 0 1 8.448-1.484 4.119 4.119 0 0 1 .089.567l16.587 9.569 4.128-2.376 4.573 5.987-6.409 4.568a4.272 4.272 0 0 1-5.1-.124z" transform="translate(-538.762 -361.987)" style="fill:#ffb8b8"/>
    <path data-name="Tracé 254" d="m806.844 496.156-9.507-6.465 4.468-6.328a4.361 4.361 0 0 1 5.439-1.421 4.361 4.361 0 0 1 2.3 5.186z" transform="translate(-579.697 -368.687)" style="fill:#3fa7d6"/>
    <path data-name="Tracé 255" d="M808.77 420.255c-2.465 1.687-5.7 3.421-8.219 1.625a4.581 4.581 0 0 1-1.5-5.281c1.205-3.447 4.517-4.965 7.684-6.128 4.117-1.512 8.6-2.715 12.85-1.632s8.007 5.2 7.239 9.517c-.617 3.473-3.893 6.363-3.428 9.859.468 3.519 4.425 5.371 7.919 6s7.4.831 9.914 3.34c3.2 3.2 2.4 8.923-.611 12.3s-7.562 4.912-11.969 5.954c-5.839 1.38-12.155 2.105-17.7-.185s-9.861-8.455-8.255-14.236c.679-2.442 2.277-4.506 3.822-6.515s3.109-4.11 3.7-6.575a6.835 6.835 0 0 0-1.235-5.98 1.733 1.733 0 0 1-.232-2.025z" transform="translate(-579.385 -324.39)" style="fill:#2f2e41"/>
    <path data-name="Tracé 256" d="M321.37 495.3a15.253 15.253 0 0 1-14.729-2.594c-5.159-4.33-6.776-11.463-8.092-18.069l-3.892-19.537 8.15 5.611c5.861 4.035 11.853 8.2 15.911 14.045s5.829 13.824 2.569 20.149" transform="translate(-278.782 -352.407)" style="fill:#e6e6e6"/>
    <path data-name="Tracé 257" d="M343.065 557.706c.825-6.008 1.673-12.094 1.094-18.166a28.571 28.571 0 0 0-5.509-14.98 24.921 24.921 0 0 0-6.393-5.794c-.639-.4-1.228.61-.591 1.011a23.69 23.69 0 0 1 9.371 11.306c2.04 5.189 2.368 10.846 2.016 16.358-.213 3.333-.663 6.645-1.117 9.952a.607.607 0 0 0 .409.72.589.589 0 0 0 .72-.409z" transform="translate(-301.174 -390.419)" style="fill:#f2f2f2"/>
    <path data-name="Tracé 258" d="M288.531 572.433a11.228 11.228 0 0 1-9.783 5.049c-4.952-.235-9.081-3.691-12.8-6.973l-10.99-9.709 7.275-.348c5.232-.25 10.6-.484 15.582 1.13s9.579 5.5 10.49 10.655" transform="translate(-254.584 -415.82)" style="fill:#e6e6e6"/>
    <path data-name="Tracé 259" d="M329.247 599.183c-3.97-7.025-8.575-14.832-16.8-17.327a18.752 18.752 0 0 0-7.068-.73c-.75.065-.563 1.221.186 1.157a17.42 17.42 0 0 1 11.279 2.984 29.317 29.317 0 0 1 7.752 8.366c1.284 1.955 2.434 3.993 3.584 6.028.365.649 1.439.18 1.067-.478z" transform="translate(-285.025 -427.473)" style="fill:#f2f2f2"/>
    <path data-name="Tracé 260" d="M354.593 628.965a8.5 8.5 0 0 0-5.21-7.121v-4.061h-6.812v4.189a8.5 8.5 0 0 0-4.926 6.993l-1.6 18.619h20.151z" transform="translate(-304.009 -449.861)" style="fill:#f2f2f2"/>
</svg>
