<svg xmlns="http://www.w3.org/2000/svg" width="171.472" height="200" viewBox="0 0 171.472 200">
    <g>
        <path data-name="Tracé 143" d="M494.32 206.176H333.785a5.375 5.375 0 0 1-5.4-5.341V138.54a5.375 5.375 0 0 1 5.4-5.341H494.32a5.375 5.375 0 0 1 5.4 5.341v62.294a5.375 5.375 0 0 1-5.4 5.342z" transform="translate(-328.39 -133.199)" style="fill:#f2f2f2"/>
        <path data-name="Tracé 144" d="M464.394 210.27h-97.653a27.336 27.336 0 0 1-27.447-27.161V171.27a27.336 27.336 0 0 1 27.447-27.161h109.617a27.336 27.336 0 0 1 27.447 27.161 39.252 39.252 0 0 1-39.411 39z" transform="translate(-335.887 -140.7)" style="fill:#fff"/>
        <path data-name="Tracé 145" d="M512.112 195.114h-63.876a1.377 1.377 0 1 1 0-2.755h63.876a1.377 1.377 0 1 1 0 2.755z" transform="translate(-409.222 -173.872)" style="fill:#e6e6e6"/>
        <path data-name="Tracé 146" d="M544.448 242.145h-96.212a1.377 1.377 0 1 1 0-2.755h96.211a1.378 1.378 0 0 1 0 2.755z" transform="translate(-408.94 -206.206)" style="fill:#e6e6e6"/>
        <path data-name="Tracé 147" d="M544.448 289.176h-96.212a1.377 1.377 0 1 1 0-2.755h96.211a1.377 1.377 0 0 1 0 2.755z" transform="translate(-408.94 -238.049)" style="fill:#e6e6e6"/>
        <path data-name="Tracé 148" d="M544.448 289.176h-96.212a1.377 1.377 0 1 1 0-2.755h96.211a1.377 1.377 0 0 1 0 2.755z" transform="translate(-408.94 -238.049)" style="fill:#e6e6e6"/>
        <path data-name="Tracé 149" d="M634.1 247.049a2.84 2.84 0 0 0 3.44 2.671l5.253 8.618 2.236-4.744-5.331-7.456a2.855 2.855 0 0 0-5.6.912z" transform="translate(-537.531 -209.046)" style="fill:#ffb6b6"/>
        <path data-name="Tracé 150" d="m684.367 286.2-18.1-9.82-5.71-5.357s-2.482-.665-1.569-1.472-1.69-1.586-1.69-1.586l-3.065-2.876-4.356 3.082 1.261 1.954s-.087 3.235 1.685 2.613 1.329 2.061 1.329 2.061l10.578 16.4z" transform="translate(-548.136 -223.391)" style="fill:#3f3d56"/>
        <circle data-name="Ellipse 21" cx="17.683" cy="17.683" r="17.683" transform="translate(64.648 17.707)" style="fill:#3fa7d6"/>
        <path data-name="Tracé 151" d="M420.105 580.4h-3.677l-1.75-14.182h5.427z" transform="translate(-283.74 -387.276)" style="fill:#ffb6b6"/>
        <path data-name="Tracé 152" d="M738.312 744.859h-2.637l-.471-2.489-1.204 2.489h-6.993a1.572 1.572 0 0 1-.893-2.866l5.585-3.857v-2.516l5.874.351z" transform="translate(-600.002 -545.364)" style="fill:#2f2e41"/>
        <path data-name="Tracé 153" d="M326 580.4h-3.677l-1.75-14.182H326z" transform="translate(-219.352 -387.276)" style="fill:#ffb6b6"/>
        <path data-name="Tracé 154" d="M644.21 744.859h-2.637l-.471-2.489-1.205 2.489H632.9a1.572 1.572 0 0 1-.893-2.866l5.585-3.857v-2.516l5.874.351z" transform="translate(-535.628 -545.364)" style="fill:#2f2e41"/>
        <path data-name="Rectangle 43" transform="translate(113.831 84.817)" style="fill:#ffb6b6" d="M0 0h18.557v21.127H0z"/>
        <path data-name="Tracé 155" d="m634.662 434.927-3.141 3.712-5.425 11.42-13.668 32.521-2.891 6.878 2.334 12.158s.378 8.566.378 9.968a5.711 5.711 0 0 0 2.388 4.437l1.752 9.124 16.987-.714s-.593-10.058-4.151-12.595-5.193-15.759-5.193-15.759l-1.933-5.866 18.843-22.336.122 7.808.059 3.779s-2.759 24.58.457 29.35.066 4.209.066 4.209l.153 9.84 20.128.143-4.44-28.329s-2.255-1.78-1.048-3.57-1.169-3.981-1.169-3.981l1.065-22.116s-1.18-3.82.208-4.317.182-3.782.182-3.782l.206-4.281-4.14-13.276z" transform="translate(-520.396 -338.636)" style="fill:#2f2e41"/>
        <path data-name="Tracé 156" d="m697.888 330.6 2-6 1.427-2 .571-5.71c0-15.417-3.439-12.85-3.439-12.85l-1.986-5.422-9.136-.286-5.853 5.567-4.853 1.713-1.9 9.875 3.471 10.538.857 5.71c-1.634 3.016-1.5 1.59-.143 3.854l16.131 4.425c5.71 2 5.71-3.141 4.565-4.425s-1.712-4.989-1.712-4.989z" transform="translate(-565.189 -246.073)" style="fill:#3f3d56"/>
        <circle data-name="Ellipse 22" cx="8.469" cy="8.469" r="8.469" transform="translate(117.051 33.113)" style="fill:#ffb6b6"/>
        <path data-name="Tracé 158" d="M714.078 253.835a1.04 1.04 0 0 1-.58 1.522c-1.136.377-1.836 1.476-2.652 2.355s-2.124 1.6-3.163 1.008-1.108-2.11-1.976-2.932a2.75 2.75 0 0 0-3.243-.094l-.03.018a1.047 1.047 0 0 1-1.6-1.066l1.044-5.554a18.676 18.676 0 0 1-3.908 5.91 4.3 4.3 0 0 1-1.7 1.193c-.594.188-1.171-.425-1.747-.314 1.433-1.253 6.253-9.287 5.39-14.658l-3.041.343a2.8 2.8 0 0 0-.68-1.282 3.286 3.286 0 0 1-.174 1.379c-.423.049-.848.094-1.27.143a2.73 2.73 0 0 1-1.733-.186c-.842-.514-.868-1.73-.628-2.689a9.9 9.9 0 0 1 5.439-6.344c2.607-1.219 3.377 1.5 6.124.628 5.425-1.713 9.581 1.216 11.046 6.652 1.232 4.561.338 9.4-.918 13.968z" transform="translate(-577.218 -200.948)" style="fill:#2f2e41"/>
        <path data-name="Tracé 159" d="M808.451 741.478H798.08l-.045-.081c-.133-.24-.261-.5-.38-.757a28.544 28.544 0 0 1-1.918-7.21l-.3-1.74a1.074 1.074 0 0 1 1.691-1.051q2.364 1.72 4.73 3.437c.6.435 1.279.938 1.933 1.481.063-.306.129-.613.195-.916a1.075 1.075 0 0 1 1.963-.339l1.213 1.949c.885 1.424 1.666 2.826 1.507 4.34a.234.234 0 0 1 0 .055 3.417 3.417 0 0 1-.176.728z" transform="translate(-647.76 -541.799)" style="fill:#f0f0f0"/>
        <path data-name="Tracé 160" d="m652.8 764.856-98.548.1a.372.372 0 0 1 0-.744l98.548-.1a.372.372 0 0 1 0 .744z" transform="translate(-481.697 -564.952)" style="fill:#cacaca"/>
        <path data-name="Tracé 161" d="m558.825 290.168-10.84-9.154a1.833 1.833 0 0 1-.218-2.58l2-2.362a1.833 1.833 0 0 1 2.58-.218l10.84 9.154a1.833 1.833 0 0 1 .218 2.58l-2 2.362a1.833 1.833 0 0 1-2.58.218z" transform="translate(-478.151 -230.492)" style="fill:#3f3d56"/>
        <path data-name="Tracé 162" d="M550.723 279.7a.988.988 0 0 0 .117 1.39l10.84 9.154a.988.988 0 0 0 1.39-.117l2-2.362a.988.988 0 0 0-.117-1.39l-10.84-9.154a.988.988 0 0 0-1.39.117z" transform="translate(-480.316 -231.568)" style="fill:#fff"/>
        <path data-name="Tracé 163" d="M566.188 288.024a.417.417 0 0 1-.33.174l-1.7.039a.417.417 0 1 1-.019-.833l1.114-.026-1.1-2.9a.417.417 0 1 1 .779-.3l1.306 3.446a.417.417 0 0 1-.044.381z" transform="translate(-489.432 -236.333)" style="fill:#3fa7d6"/>
        <path data-name="Tracé 164" d="M565.061 299.311a2.84 2.84 0 0 1 2.281 3.71l8 6.159-4.959 1.707-6.832-6.11a2.855 2.855 0 0 1 1.515-5.465z" transform="translate(-488.039 -246.821)" style="fill:#ffb6b6"/>
        <path data-name="Tracé 165" d="m618.386 309.129-20.471 12.587s-8.254-3.054-6.641-4.468-3.522-2.37-3.522-2.37l-5.673-3.817-3.292 3.826s.6 6.214 1.62 5.138 2.546 1.863 2.546 1.863.451 3.282 3.356 2.456 10.7 7.832 10.7 7.832l25.194-9.4z" transform="translate(-499.476 -253.523)" style="fill:#3f3d56"/>
        <path data-name="Tracé 166" d="M575.643 237.674a1.528 1.528 0 0 1-1.223-.612l-3.749-5a1.529 1.529 0 1 1 2.446-1.834l2.453 3.27 6.3-9.45a1.529 1.529 0 0 1 2.544 1.7l-7.5 11.248a1.529 1.529 0 0 1-1.23.68z" transform="translate(-493.914 -195.191)" style="fill:#fff"/>
    </g>
</svg>
