<svg xmlns="http://www.w3.org/2000/svg" width="308.442" height="200" viewBox="0 0 308.442 200">
    <path data-name="Tracé 167" d="M175.944 535.838c1.518-15.491 10.69-30.954 25.285-36.362a71.713 71.713 0 0 0 1.287 49.219c2.422 6.062 5.748 12.552 3.78 18.776-1.224 3.873-4.387 6.894-7.961 8.825s-7.57 2.911-11.516 3.872l-.764.666c-6.672-14.063-11.628-29.505-10.111-44.996z" transform="translate(-166.239 -382.006)" style="fill:#f0f0f0"/>
    <path data-name="Tracé 168" d="M220.943 499.13a61.3 61.3 0 0 0-14.334 34.882 26.4 26.4 0 0 0 .516 8.254 15.139 15.139 0 0 0 3.947 6.921c1.745 1.82 3.741 3.479 5.013 5.691a9.27 9.27 0 0 1 .65 7.553c-.992 3.1-3.039 5.662-5.127 8.1-2.319 2.7-4.771 5.474-5.695 9-.112.427-.769.229-.657-.2 1.607-6.137 7.43-9.751 10.107-15.311a9.388 9.388 0 0 0 .42-8.251c-1.14-2.335-3.2-4.048-4.98-5.875a16.155 16.155 0 0 1-4.112-6.624 24.4 24.4 0 0 1-.831-8.2 59.467 59.467 0 0 1 3.871-18.179 62.383 62.383 0 0 1 10.745-18.262c.285-.336.75.169.467.5z" transform="translate(-185.799 -381.371)" style="fill:#fff"/>
    <path data-name="Tracé 169" d="M195.321 571.988a9.2 9.2 0 0 1-7.249-9.448.343.343 0 0 1 .686.016 8.516 8.516 0 0 0 6.761 8.775c.432.091.231.747-.2.657z" transform="translate(-174.434 -423.893)" style="fill:#fff"/>
    <path data-name="Tracé 170" d="M219.16 624.979a17.725 17.725 0 0 0 7.647-10.411c.113-.427.77-.228.657.2a18.436 18.436 0 0 1-7.979 10.818c-.374.236-.7-.37-.324-.6z" transform="translate(-194.894 -458.216)" style="fill:#fff"/>
    <path data-name="Tracé 171" d="M226.991 534.142a5.205 5.205 0 0 0 4.925-.379c.371-.24.693.366.324.6a5.834 5.834 0 0 1-5.447.431.355.355 0 0 1-.229-.427.345.345 0 0 1 .427-.229z" transform="translate(-199.891 -405.151)" style="fill:#fff"/>
    <path data-name="Tracé 172" d="M266.5 574.769c-.228.157-.455.313-.683.475a68.55 68.55 0 0 0-8.584 7.069c-.209.2-.418.4-.621.6a72.271 72.271 0 0 0-15.13 21.887 70.19 70.19 0 0 0-3.584 10.044c-1.3 4.742-2.323 9.987-5.029 13.909a12.057 12.057 0 0 1-.907 1.182l-25.362.665c-.058-.027-.117-.049-.176-.077l-1.012.073c.036-.18.077-.367.113-.547.02-.1.047-.21.067-.314.015-.07.031-.14.041-.2.005-.023.01-.047.016-.064.01-.064.026-.122.036-.18q.341-1.564.706-3.129c0-.006 0-.006.005-.012a103.194 103.194 0 0 1 8.087-23.018c.11-.217.22-.44.342-.658a66.974 66.974 0 0 1 5.776-9.278 59.2 59.2 0 0 1 3.824-4.611 49.234 49.234 0 0 1 12.076-9.547c8.973-5.041 19.459-7.156 29.259-4.475.247.062.492.131.74.206z" transform="translate(-185.908 -430.89)" style="fill:#f0f0f0"/>
    <path data-name="Tracé 173" d="M266.652 577.069a61.3 61.3 0 0 0-32.446 19.222 26.4 26.4 0 0 0-4.558 6.9 15.139 15.139 0 0 0-1.016 7.9c.3 2.5.892 5.03.576 7.563a9.27 9.27 0 0 1-4.029 6.422c-2.659 1.88-5.835 2.692-8.969 3.378-3.479.762-7.1 1.5-9.966 3.758-.347.274-.751-.28-.405-.554 4.978-3.932 11.8-3.312 17.288-6.14a9.388 9.388 0 0 0 5.3-6.335c.5-2.551-.116-5.157-.439-7.689a16.155 16.155 0 0 1 .705-7.764 24.4 24.4 0 0 1 4.276-7.051 59.466 59.466 0 0 1 14.038-12.179 62.381 62.381 0 0 1 19.574-8.112c.43-.1.5.586.07.682z" transform="translate(-186.106 -432.867)" style="fill:#fff"/>
    <path data-name="Tracé 174" d="M293.065 602.026a9.2 9.2 0 0 1-.1-11.908c.284-.338.822.088.538.426a8.516 8.516 0 0 0 .115 11.076c.291.334-.264.737-.553.406z" transform="translate(-242.403 -442.179)" style="fill:#fff"/>
    <path data-name="Tracé 175" d="M271.713 667.827a17.725 17.725 0 0 0 12.374-3.709c.348-.273.752.281.405.554a18.436 18.436 0 0 1-12.884 3.833c-.441-.037-.333-.715.1-.678z" transform="translate(-229.505 -490.849)" style="fill:#fff"/>
    <path data-name="Tracé 176" d="M344.649 591.52a5.206 5.206 0 0 0 4.16 2.663c.441.032.333.709-.1.678a5.833 5.833 0 0 1-4.609-2.935.355.355 0 0 1 .074-.479.345.345 0 0 1 .479.074z" transform="translate(-277.104 -443.142)" style="fill:#fff"/>
    <path data-name="Tracé 177" d="M819.356 170.86c-.379-1.118-5.129-4.92-2.218-5.559l2.387 3.182 10.975-10.972 1.1 1.1z" transform="translate(-588.154 -157.269)" style="fill:#3fa7d6"/>
    <path data-name="Tracé 178" d="M819.356 281.054c-.379-1.118-5.129-4.92-2.218-5.559l2.387 3.182L830.5 267.7l1.1 1.1z" transform="translate(-588.154 -229.859)" style="fill:#3fa7d6"/>
    <path data-name="Tracé 179" d="M819.356 392.822c-.379-1.118-5.129-4.92-2.218-5.559l2.387 3.182 10.975-10.972 1.1 1.1z" transform="translate(-588.154 -303.488)" style="fill:#3fa7d6"/>
    <circle data-name="Ellipse 23" cx="3.386" cy="3.386" r="3.386" transform="translate(217.585 51.765)" style="fill:#3f3d56"/>
    <circle data-name="Ellipse 24" cx="3.386" cy="3.386" r="3.386" transform="translate(217.585 14.472)" style="fill:#3f3d56"/>
    <path data-name="Rectangle 44" transform="translate(253.925 10.07)" style="fill:#3f3d56" d="M0 0h54.517v.677H0z"/>
    <circle data-name="Ellipse 25" cx="3.386" cy="3.386" r="3.386" transform="translate(219.291 91.404)" style="fill:#3f3d56"/>
    <path data-name="Rectangle 45" transform="translate(253.925 47.726)" style="fill:#3f3d56" d="M0 0h54.517v.677H0z"/>
    <path data-name="Rectangle 46" transform="translate(253.925 85.847)" style="fill:#3f3d56" d="M0 0h54.517v.677H0z"/>
    <path data-name="Tracé 180" d="M669.891 243.269H652.96V226h11.513v.677h-10.836v15.915h15.576V234.8h.677z" transform="translate(-430.168 -148.868)" style="fill:#3f3d56"/>
    <path data-name="Tracé 181" d="M669.891 131.269H652.96V114h11.513v.677h-10.836v15.915h15.576V122.8h.677z" transform="translate(-430.168 -75.093)" style="fill:#3f3d56"/>
    <path data-name="Tracé 182" d="M669.891 17.269H652.96V0h11.513v.677h-10.836v15.915h15.576V8.8h.677z" transform="translate(-430.168)" style="fill:#3f3d56"/>
    <path data-name="Tracé 183" d="M520.919 322.857s-4.525 19.105 1.006 19.105 18.6-21.619 18.6-21.619l-4.525-5.53-8.122 11.276-.425-5.745z" transform="translate(-392.453 -260.859)" style="fill:#a0616a"/>
    <circle data-name="Ellipse 26" cx="4.402" cy="4.402" r="4.402" transform="translate(142.542 51.449)" style="fill:#a0616a"/>
    <path data-name="Tracé 184" d="M365.172 521.9h5.859l2.788-22.6h-8.648z" transform="translate(-240.6 -328.796)" style="fill:#a0616a"/>
    <path data-name="Tracé 185" d="M512.384 721.875H530.4v-.228a7.014 7.014 0 0 0-7.013-7.013l-3.291-2.5-6.141 2.5h-1.573z" transform="translate(-387.989 -522.656)" style="fill:#2f2e41"/>
    <path data-name="Tracé 186" d="m179.038 504.959 5.243 2.616 12.587-18.975-7.738-3.862z" transform="translate(-117.948 -319.163)" style="fill:#a0616a"/>
    <path data-name="Tracé 187" d="m318.25 704.48 16.123 8.046.1-.2a7.014 7.014 0 0 0-3.143-9.407l-1.83-3.7-6.61-.508-1.407-.7z" transform="translate(-260.098 -513.307)" style="fill:#2f2e41"/>
    <path data-name="Rectangle 47" transform="translate(0 199.241)" style="fill:#ccc" d="M0 0h192.96v.759H0z"/>
    <path data-name="Tracé 188" d="m356.508 435.034-2.844 34.189a42.9 42.9 0 0 1-2.514 11.061 10.4 10.4 0 0 0-1.006 4.022l-11.4 20.711s-3.482 2.56-2.98 4.571-2.1 3.217-2.1 3.217l12 2.313a1.557 1.557 0 0 1 1.005-2.011c1.508-.5 2.709-4.863 2.709-4.863l16.848-27.457 12.074-25.139s7.039 22.624 8.547 25.138c0 0 5.53 28.155 6.536 30.669s1.508 2.514 1.005 3.519a2.244 2.244 0 0 0 0 2.514c.5.5 10.055 0 10.055 0l-2.514-35.7-4.529-42.731-23.127-7.039z" transform="translate(-270.146 -337.39)" style="fill:#2f2e41"/>
    <circle data-name="Ellipse 27" cx="10.558" cy="10.558" r="10.558" transform="translate(98.614 7.88)" style="fill:#a0616a"/>
    <path data-name="Tracé 189" d="m442.017 262.388-12.569-7.615s-.348-4.729-3.93-4.951c-1.8-.112-4.5-.282-8.545-.544-.856-.055-1.433 4.626-2.414 4.563l-13.267 3.519 2.011 34.188s-3.017 13.575-2.011 16.089-2.514 3.519-1.508 4.022 0 4.022 0 4.022 19.608 10.055 41.227 2.514L439 311.659a5.276 5.276 0 0 0-1.006-5.028s2.011-3.017-.5-5.53c0 0 1.005-4.525-1.508-6.536l-.5-7.039 1.508-3.519z" transform="translate(-313.63 -217.608)" style="fill:#e6e6e6"/>
    <path data-name="Tracé 190" d="m436.78 191.26-.3-.685c-.038-.089-3.772-8.915-.462-14.36 1.532-2.521 4.318-3.944 8.28-4.229 6.2-.448 10.442 1.022 12.614 4.368a3.75 3.75 0 0 1-3.161 5.777h-.083l-1.139-1.479-.066.144a2.353 2.353 0 0 1-2.463 1.272c-.189-.014-.356.149-.49.5a.886.886 0 0 1-.663.614c-.82.16-1.988-.873-2.511-1.387a.839.839 0 0 1-.391.576c-.551.318-1.409-.1-1.655-.23-1.961.417-3.231.305-3.774-.331-.369 2.609-1.16 7.3-2.109 7.564a.474.474 0 0 1-.518-.226c-.228-.3-.433-.444-.56-.4-.309.1-.491 1.115-.517 1.771z" transform="translate(-336.77 -166.79)" style="fill:#2f2e41"/>
    <path data-name="Tracé 191" d="m499.691 287.888 5.015-.815a24.486 24.486 0 0 1 7.051 12.881c1.508 8.044 2.011 9.553 2.011 9.553l-12.068 3.017-6.536-12.569z" transform="translate(-376.645 -242.595)" style="fill:#e6e6e6"/>
    <path data-name="Rectangle 48" transform="rotate(-85.49 100.375 -5.277)" style="fill:#fff" d="M0 0h39.413v79.341H0z"/>
    <path data-name="Tracé 192" d="M457.348 326.51a9.273 9.273 0 0 0-5.332-1.462 8.007 8.007 0 0 0 8.444 6.033 9.279 9.279 0 0 0-3.112-4.571z" transform="translate(-348.245 -267.65)" style="fill:#3fa7d6"/>
    <path data-name="Tracé 193" d="m459.467 401.23-12.7-1a2.866 2.866 0 1 0-.451 5.715l12.7 1a2.866 2.866 0 1 0 .451-5.715z" transform="translate(-342.723 -317.176)" style="fill:#3fa7d6"/>
    <path data-name="Tracé 194" d="m509.425 316.516-71.208-5.616a6.326 6.326 0 0 0-6.8 5.81l-2.742 34.69a6.33 6.33 0 0 0 5.811 6.807l71.207 5.618a6.326 6.326 0 0 0 6.8-5.81l2.6-32.973.052-.674.083-1.048a6.326 6.326 0 0 0-5.803-6.804zm-2.1 30.183-.451 5.715a3.832 3.832 0 0 1-4.111 3.508l-9.526-.751a3.831 3.831 0 0 1-3.508-4.111l.451-5.715a3.833 3.833 0 0 1 4.111-3.508l9.523.751a3.836 3.836 0 0 1 3.512 4.11zm-74.2-2.98a3.5 3.5 0 0 1 3.763-3.214l12.7 1a3.5 3.5 0 1 1-.545 6.983h-.007l-12.7-1a3.5 3.5 0 0 1-3.212-3.771zm2.719-28.268-.087-.355.365-.034a8.733 8.733 0 0 1 9.622 6.872l.084.356-.365.037a9.62 9.62 0 0 1-1.554-.01 9.189 9.189 0 0 1-4.6-1.553 9.978 9.978 0 0 1-3.468-5.313z" transform="translate(-332.602 -258.19)" style="fill:#3fa7d6"/>
    <path data-name="Tracé 195" d="m619.011 427.216-4.128-.326a1.115 1.115 0 0 0-.175 2.223l4.128.326a1.115 1.115 0 0 0 .175-2.223z" transform="translate(-454.77 -334.761)" style="fill:#3fa7d6"/>
    <path data-name="Tracé 196" d="m641.516 428.991-4.128-.326a1.115 1.115 0 0 0-.175 2.223l4.128.326a1.115 1.115 0 0 0 .175-2.223z" transform="translate(-469.598 -335.931)" style="fill:#3fa7d6"/>
    <path data-name="Tracé 197" d="m619.677 418.777-4.128-.326a1.115 1.115 0 0 0-.175 2.223l4.126.326a1.115 1.115 0 1 0 .175-2.223z" transform="translate(-455.209 -329.201)" style="fill:#3fa7d6"/>
    <path data-name="Tracé 198" d="m642.181 420.552-4.128-.326a1.115 1.115 0 0 0-.175 2.223l4.128.326a1.115 1.115 0 1 0 .175-2.223z" transform="translate(-470.036 -330.37)" style="fill:#3fa7d6"/>
    <path data-name="Tracé 199" d="m620.343 410.338-4.128-.326a1.115 1.115 0 0 0-.175 2.223l4.128.326a1.115 1.115 0 1 0 .175-2.223z" transform="translate(-455.647 -323.64)" style="fill:#3fa7d6"/>
    <path data-name="Tracé 200" d="m642.847 412.113-4.128-.326a1.115 1.115 0 1 0-.175 2.223l4.128.326a1.115 1.115 0 0 0 .175-2.223z" transform="translate(-470.475 -324.81)" style="fill:#3fa7d6"/>
    <path data-name="Rectangle 49" transform="rotate(-85.509 86.785 -17.768)" style="fill:#fff" d="M0 0h.677v83.846H0z"/>
    <path data-name="Tracé 201" d="m469.955 188.715-.052.674-2.909-.228L436 186.726l.056-.675 30.991 2.435z" transform="translate(-287.164 -122.589)" style="fill:#3f3d56"/>
    <path data-name="Tracé 202" d="M378.919 313.857s-4.525 19.105 1.005 19.105 18.6-21.619 18.6-21.619l-4.524-5.53-8.122 11.276-.425-5.745z" transform="translate(-298.909 -254.932)" style="fill:#a0616a"/>
    <circle data-name="Ellipse 28" cx="4.402" cy="4.402" r="4.402" transform="translate(94.102 48.379)" style="fill:#a0616a"/>
    <path data-name="Tracé 203" d="m390.862 276.164-3.017-3.017s-6.033 3.519-6.536 7.039-3.017 14.58-3.017 14.58l9.3.754 3.019-4.52z" transform="translate(-299.663 -233.429)" style="fill:#e6e6e6"/>
</svg>
