<svg xmlns="http://www.w3.org/2000/svg" width="205.242" height="200" viewBox="0 0 205.242 200">
    <path data-name="Tracé 119" d="M525.7 317.365h-11.53v98.3a11.744 11.744 0 0 1-11.745 11.744h-88.156v.112a11.745 11.745 0 0 0 11.745 11.745H525.7a11.744 11.744 0 0 0 11.745-11.745v-98.412a11.744 11.744 0 0 0-11.745-11.744z" transform="translate(-387.481 -275.949)" style="fill:#f2f2f2"/>
    <path data-name="Tracé 120" d="M791.595 626.3a1 1 0 0 0 .722-1.727l-.068-.271.027-.065a2.676 2.676 0 0 1 4.937.018 23.758 23.758 0 0 1 2.089 5.949 7.916 7.916 0 0 1-.139 2.723 31.741 31.741 0 0 0 2.888-13.183 30.713 30.713 0 0 0-.19-3.418q-.157-1.4-.437-2.771a32.11 32.11 0 0 0-6.368-13.609 8.547 8.547 0 0 1-3.554-3.687 6.519 6.519 0 0 1-.593-1.781 8.045 8.045 0 0 0 .522-2.774c.241-.366.673-.548.936-.9 1.31-1.776 3.114-1.466 4.056.947 2.012 1.016 2.032 2.7.8 4.32-.786 1.031-.893 2.425-1.583 3.528.071.091.145.179.216.27a32.323 32.323 0 0 1 3.373 5.344 13.433 13.433 0 0 1 .8-6.24 22.5 22.5 0 0 1 3.474-5.013 2.757 2.757 0 0 1 4.911 1.354c0 .024.005.047.008.071q-.282.159-.553.338a1.352 1.352 0 0 0 .545 2.46h.027a13.449 13.449 0 0 1-.354 2.011c1.626 6.287-1.884 8.576-6.9 8.679-.111.057-.218.113-.329.167a32.986 32.986 0 0 1 1.776 8.356 31.284 31.284 0 0 1-.023 5.052l.008-.06a8.268 8.268 0 0 1 2.822-4.774c2.172-1.784 5.24-2.441 7.583-3.875a1.551 1.551 0 0 1 2.376 1.509l-.01.063a9.091 9.091 0 0 0-1.018.491q-.282.159-.553.338a1.352 1.352 0 0 0 .545 2.46h.028l.057.009a13.462 13.462 0 0 1-2.476 3.877c-1.016 5.488-5.382 6.009-10.052 4.41a32.968 32.968 0 0 1-2.215 6.467h-7.914c-.028-.088-.054-.179-.08-.267a8.98 8.98 0 0 0 2.19-.13c-.587-.72-1.174-1.447-1.761-2.167a.509.509 0 0 1-.037-.043c-.3-.369-.6-.735-.9-1.1a13.159 13.159 0 0 1 .386-3.355z" transform="translate(-610.176 -433.914)" style="fill:#f2f2f2"/>
    <path data-name="Tracé 121" d="M593.234 279.758a3.621 3.621 0 0 0 5.474.67l16.453 7.423 3.172-4.046-19.605-8.673a3.616 3.616 0 0 0-5.493 4.626z" transform="translate(-493.825 -245.795)" style="fill:#a0616a"/>
    <path data-name="Tracé 122" d="m676.188 288.68 1.632 9.247a3.142 3.142 0 0 1-2.848 3.678l-27.727 2.18-32.592-14.585 3.893-7.39 28.293 8.96z" transform="translate(-508.434 -252.061)" style="fill:#3fa7d6"/>
    <rect data-name="Rectangle 41" width="123.172" height="121.902" rx="26.744" transform="translate(0 27.753)" style="fill:#f2f2f2"/>
    <path data-name="Tracé 123" d="M368.1 287.865a9.329 9.329 0 0 0-9.329 9.329v98.413a9.329 9.329 0 0 0 9.329 9.329h63.62a45.392 45.392 0 0 0 45.392-45.392v-62.35a9.329 9.329 0 0 0-9.329-9.329z" transform="translate(-356.354 -257.563)" style="fill:#fff"/>
    <path data-name="Tracé 124" d="M483.036 350.931h-55.95a1.936 1.936 0 1 1 0-3.872h55.95a1.936 1.936 0 1 1 0 3.872z" transform="translate(-393.45 -289.936)" style="fill:#f2f2f2"/>
    <path data-name="Tracé 125" d="M483.036 444.932h-55.95a1.936 1.936 0 1 1 0-3.872h55.95a1.936 1.936 0 1 1 0 3.872z" transform="translate(-393.45 -344.879)" style="fill:#f2f2f2"/>
    <path data-name="Tracé 126" d="M476.739 397.962H375.35a1.936 1.936 0 1 1 0-3.872h101.39a1.936 1.936 0 1 1 0 3.871z" transform="translate(-364.568 -317.425)" style="fill:#f2f2f2"/>
    <path data-name="Tracé 127" d="m380.631 176.761-10.1 21.518 38.854-3.935-8.111-20.657z" transform="translate(-219.269 -101.976)" style="fill:#a0616a"/>
    <path data-name="Tracé 128" d="m407.313 443.71-3.684-.031L402 429.138l5.437.046z" transform="translate(-236.918 -251.846)" style="fill:#a0616a"/>
    <path data-name="Tracé 129" d="M740.5 675.049a1.649 1.649 0 0 0 1.633 1.661l7.324.061 1.282-2.6.471 2.612 2.764.025-.7-9.317-.962-.064-3.922-.27-1.265-.085-.022 2.636-5.884 3.991a1.647 1.647 0 0 0-.719 1.35z" transform="translate(-580.034 -477.328)" style="fill:#2f2e41"/>
    <path data-name="Tracé 130" d="m316.78 442.575-3.512-1.112 2.713-14.378 5.184 1.641z" transform="translate(-183.245 -250.695)" style="fill:#a0616a"/>
    <path data-name="Tracé 131" d="M644.834 669.54a1.649 1.649 0 0 0 1.073 2.068l6.983 2.21 1.989-2.108-.317 2.635 2.634.836 2.07-9.111-.9-.344-3.669-1.411-1.185-.453-.8 2.513-6.8 2.086a1.646 1.646 0 0 0-1.086 1.077z" transform="translate(-524.004 -475.528)" style="fill:#2f2e41"/>
    <path data-name="Tracé 132" d="M725.552 416.522 690.224 423s-5.666 4.239-4.151 5.757 1.751 1.283.755 2.279-3.149 2.327-3.17 3.2-15.83 39.955-15.83 39.955 1.757-.878.439.439a3.808 3.808 0 0 0-1.318 2.406l-6.149 41.502 9.985.588 9.777-37.842 21.808-35.353s2.164 31.526 2.255 33.623 1.408-.538.091 2.1-2.2.878-1.317 2.635-3.164 37.518-3.164 37.518h9.113l19.546-74.124s6.954-21.195-3.342-31.161z" transform="translate(-537.204 -336.805)" style="fill:#2f2e41"/>
    <path data-name="Tracé 133" d="m749.123 279.632-14.151-1.47-3.666 4.76-4.271 2.275a10.66 10.66 0 0 0-5.628 10.084l4.992 29.036s-4.216 9.494-1.318 11.857-2.241 8.215 3.952 5.27 32.936.439 32.936.439l-5.709-16.248 4.265-15.966.469-13.387a11.342 11.342 0 0 0-8.054-11.254l-.6-.18z" transform="translate(-571.184 -247.909)" style="fill:#3fa7d6"/>
    <path data-name="Tracé 134" d="M807.953 234.136a20.48 20.48 0 0 1-3.54 11.243 21.323 21.323 0 0 0-2.973-5.5 17.123 17.123 0 0 1-1.822 10.845 2.28 2.28 0 0 1-.2.125 6.721 6.721 0 0 1-5.847.717 13.113 13.113 0 0 0 1.127-15.891 19.984 19.984 0 0 1-2.7-4.046c-.906-2.43-.035-5.106.514-7.64.514-2.358.6-5.165-.979-6.893a1.663 1.663 0 0 1 1.524-.7 3.145 3.145 0 0 1 2.138 1.859 13.556 13.556 0 0 0 1.381 2.6c1.167 1.412 3.155 1.746 4.83 2.49 4.065 1.8 6.45 6.355 6.547 10.791z" transform="translate(-610.531 -213.395)" style="fill:#2f2e41"/>
    <path data-name="Tracé 135" d="M590.92 688.567a.521.521 0 0 0 .523.523h111.23a.523.523 0 1 0 0-1.045h-111.23a.521.521 0 0 0-.523.523z" transform="translate(-498.011 -489.089)" style="fill:#ccc"/>
    <circle data-name="Ellipse 18" cx="3.952" cy="3.952" r="3.952" transform="translate(194.345 99.502)" style="fill:#3fa7d6"/>
    <path data-name="Tracé 136" d="M747.031 233.539c.232-.811-1.366 4.148-.595 4.238 3.512.4 8.332 2.5 10.778 3.479.11-.013.22-.026.327-.042.262-.029.518-.07.771-.118 5.7-1.078 7.885-9.826 7.885-9.906 0-.393-.944-11.2-2.431-11.355a10.962 10.962 0 0 0-1.176-.064h-3.69a17.151 17.151 0 0 0-2.316-.336h-.007c-7.428-.566-13.285 3.962-12.738 9.471 0 .006.01.013.013.019.159.237.3.46.421.675s.22.393.308.576c.677 1.407-1.063 3.177.091 3.508 1.535.439-4.037 14.884 2.038 14.884-2.955.839-.319-12.791.321-15.029z" transform="translate(-583.755 -215.078)" style="fill:#2f2e41"/>
    <circle data-name="Ellipse 19" cx="8.736" cy="8.736" r="8.736" transform="translate(161.17 9.463)" style="fill:#a0616a"/>
    <path data-name="Tracé 137" d="M743.89 229.169c.146.077.288.147.434.217s.3.147.457.214c2.925 1.327 5.306 1.474 6.751-.432a8.077 8.077 0 0 1 .664-2.91 4.676 4.676 0 0 0 .771 2.91h2.909c3 1.989 4.535 2.2 2.456 8.726-.58 1.819-2.886 12.406-1.979 13.976.262-.029 3.054-11.625 3.307-11.673 5.7-1.078 9.314-10.46 8.85-10.991a9.784 9.784 0 0 0-1.014-4.352 10.009 10.009 0 0 0-3.8-4.138 17.633 17.633 0 0 0-3.039-1.142l-.075-.019a16.858 16.858 0 0 0-.975-.233 17.94 17.94 0 0 0-2.047-.31c-.049 0-.1-.006-.142-.006a1.543 1.543 0 0 0-.781.214h-.006a1.47 1.47 0 0 0-.434.387 1.486 1.486 0 0 0-.318.924h-3.239q-.18 0-.36.01a8.686 8.686 0 0 0-8.374 8.166 5.574 5.574 0 0 0-.016.462z" transform="translate(-583.805 -214.866)" style="fill:#2f2e41"/>
    <circle data-name="Ellipse 20" cx="5.755" cy="5.755" r="5.755" transform="translate(173.43)" style="fill:#2f2e41"/>
    <path data-name="Tracé 138" d="M822.493 430.677a3.621 3.621 0 0 0-1.632-5.268l.028-18.049-4.991-1.235.123 21.438a3.616 3.616 0 0 0 6.471 3.115z" transform="translate(-624.151 -325.021)" style="fill:#a0616a"/>
    <path data-name="Tracé 139" d="m774.733 303.618 7.766-5.278a3.142 3.142 0 0 1 4.522 1.09l13.352 24.4.051 35.707-8.336-.523-3.422-29.479z" transform="translate(-601.104 -261.949)" style="fill:#3fa7d6"/>
    <path data-name="Tracé 140" d="M524.22 495.453h-83a6.807 6.807 0 0 0 0 13.614h83a6.807 6.807 0 0 0 0-13.614z" transform="translate(-402.179 -377.005)" style="fill:#fff"/>
    <path data-name="Tracé 141" d="M523.659 508.945h-83a7.246 7.246 0 0 1 0-14.492h83a7.246 7.246 0 0 1 0 14.492zm-83-13.614a6.368 6.368 0 0 0 0 12.735h83a6.368 6.368 0 0 0 0-12.735z" transform="translate(-401.601 -376.451)" style="fill:#3fa7d6"/>
    <path data-name="Tracé 142" d="M600.808 558.151h-36.627a1.936 1.936 0 0 1 0-3.872h36.628a1.936 1.936 0 0 1 0 3.872z" transform="translate(-476.44 -411.056)" style="fill:#3fa7d6"/>
</svg>
